<svg xmlns="http://www.w3.org/2000/svg" viewBox="0 0 228.59 228.59"><defs><style>.cls-1{fill:#fff;}</style></defs><title>close</title><g id="Layer_2" data-name="Layer 2"><g id="Layer_1-2" data-name="Layer 1"><path class="cls-1" d="M148.17,114.29,225.48,37a10.6,10.6,0,0,0,0-15L206.61,3.11a10.6,10.6,0,0,0-15,0L114.29,80.42,37,3.11a10.6,10.6,0,0,0-15,0L3.11,22a10.6,10.6,0,0,0,0,15l77.31,77.31L3.11,191.61a10.6,10.6,0,0,0,0,15L22,225.48a10.6,10.6,0,0,0,15,0l77.31-77.31,77.31,77.31a10.6,10.6,0,0,0,15,0l18.88-18.88a10.6,10.6,0,0,0,0-15Z"/></g></g></svg>